<svg version="1.0" xmlns="http://www.w3.org/2000/svg" width="320.000000pt" height="320.000000pt" viewBox="0 0 320.000000 320.000000" preserveAspectRatio="xMidYMid meet">
    <g transform="translate(0.000000,320.000000) scale(0.100000,-0.100000)" fill="#c6c6c7" stroke="none">
        <path d="M1450 3014 c-123 -26 -778 -254 -911 -317 -209 -98 -227 -143 -236
        -613 l-6 -300 31 -34 c25 -29 37 -35 72 -35 35 0 47 6 71 33 l29 32 0 238 c0
        240 12 408 30 442 21 39 184 104 685 274 l270 91 115 0 115 0 270 -91 c502
        -170 664 -235 685 -274 23 -43 31 -241 27 -638 -4 -367 -6 -415 -25 -492 -37
        -156 -83 -259 -176 -400 -44 -65 -56 -92 -56 -122 0 -63 48 -98 120 -88 61 8
        223 279 278 465 54 183 57 217 57 710 0 492 -5 553 -50 652 -48 107 -155 157
        -790 372 -132 45 -271 88 -310 96 -87 18 -209 18 -295 -1z"/>
        <path d="M1868 1937 c-14 -12 -106 -112 -203 -222 -98 -110 -184 -207 -192
        -215 -12 -13 -23 -6 -88 63 -69 72 -77 77 -115 77 -55 0 -100 -42 -100 -93 0
        -40 19 -66 150 -208 143 -155 133 -159 425 168 289 323 285 318 285 360 0 78
        -100 122 -162 70z"/>
        <path d="M359 1401 c-34 -34 -36 -64 -13 -155 107 -426 435 -783 916 -998 151
        -68 215 -81 368 -76 149 6 194 19 389 115 158 78 211 123 211 176 0 47 -34 86
        -80 93 -30 5 -57 -5 -180 -69 -195 -102 -244 -117 -370 -117 -118 0 -170 15
        -324 92 -396 198 -632 460 -735 818 -34 119 -58 150 -117 150 -26 0 -44 -8
        -65 -29z"/>
    </g>
</svg>